<svg width="1440" height="216" viewBox="0 0 1440 216" fill="none" xmlns="http://www.w3.org/2000/svg">
<rect width="1440" height="216" fill="white"/>
<path d="M102.403 95.3644L80 117.767H91.2014L93.9982 114.971H113.604L107.996 109.377H99.6061L108.011 100.972L102.403 95.3644Z" fill="#B7BAC7"/>
<path d="M102.403 95.3644L96.8093 100.958L113.604 117.753H124.806L102.403 95.3644Z" fill="#B7BAC7"/>
<path d="M141.601 89.7708L130.399 100.972L124.806 95.3787H113.604L124.806 106.58L105.142 126.229H116.343L130.399 112.174L135.993 117.767H147.194L135.993 106.566L152.802 89.7708H141.601Z" fill="#B7BAC7"/>
<path d="M158.41 95.3644L136.007 117.767H147.209L158.41 106.566L169.612 117.767L192 95.3644H180.799L169.597 106.566L158.41 95.3644Z" fill="#B7BAC7"/>
<path d="M150.006 117.767H166.801L158.41 109.377L150.006 117.767Z" fill="#B7BAC7"/>
<path d="M161.207 117.767H166.8L158.41 109.377L161.207 117.767Z" fill="#B7BAC7"/>
<path d="M318.609 101.377C316.586 101.377 314.286 102.315 312.881 104.192L312.882 104.188L312.881 104.189L312.882 101.672H308.059V119.237H312.881V109.242C312.881 107.444 314.276 105.531 316.858 105.531C318.854 105.531 320.919 106.92 320.919 109.242V119.237H325.743V108.349C325.743 104.309 322.852 101.377 318.609 101.377ZM360.025 101.673L355.664 113.638L351.304 101.673H345.794L353.021 119.233H358.306L365.534 101.673H360.025ZM293.659 106.964C294.48 105.861 295.789 105.214 297.369 105.214C299.107 105.214 300.426 106.206 301.107 107.672L292.68 111.168C292.45 109.374 292.909 107.97 293.659 106.964ZM302.925 113.837C300.895 115.339 299.736 115.698 297.884 115.698C296.218 115.698 294.914 115.18 293.994 114.273L306.326 109.158C306.056 107.252 305.333 105.548 304.22 104.254C302.599 102.372 300.201 101.376 297.281 101.376C291.978 101.376 287.978 105.289 287.978 110.457C287.978 115.759 291.987 119.536 297.813 119.536C301.077 119.536 304.414 117.989 305.976 116.182L302.925 113.837ZM287.519 114.809H276.556V96.4188H271.667V119.237H287.519V114.809ZM374.195 105.51C371.501 105.51 369.545 107.551 369.545 110.455C369.545 113.228 371.617 115.4 374.259 115.4C376.954 115.4 378.909 113.303 378.909 110.455C378.909 107.682 376.838 105.51 374.195 105.51ZM374.195 119.534C368.92 119.534 364.786 115.604 364.786 110.455C364.786 105.364 368.948 101.376 374.259 101.376C379.535 101.376 383.667 105.306 383.667 110.455C383.667 115.545 379.506 119.533 374.195 119.533V119.534ZM337.058 105.51C334.365 105.51 332.41 107.551 332.41 110.455C332.41 113.228 334.481 115.4 337.124 115.4C339.818 115.4 341.773 113.303 341.773 110.455C341.773 107.682 339.702 105.51 337.058 105.51ZM337.058 119.534C331.783 119.534 327.651 115.604 327.651 110.455C327.651 105.364 331.812 101.376 337.124 101.376C342.398 101.376 346.531 105.306 346.531 110.455C346.531 115.545 342.37 119.533 337.058 119.533" fill="#B7BAC7"/>
<path fill-rule="evenodd" clip-rule="evenodd" d="M499.164 116.158L500.562 112.91C502.072 114.039 504.083 114.626 506.068 114.626C507.533 114.626 508.46 114.061 508.46 113.206C508.438 110.813 499.684 112.686 499.617 106.687C499.594 103.641 502.3 101.293 506.135 101.293C508.416 101.293 510.691 101.858 512.318 103.144L511.009 106.459C509.522 105.509 507.672 104.833 505.911 104.833C504.715 104.833 503.927 105.397 503.927 106.118C503.949 108.466 512.77 107.18 512.86 112.91C512.86 116.024 510.221 118.214 506.431 118.214C503.653 118.21 501.104 117.556 499.164 116.158ZM552.839 111.736C552.14 112.955 550.832 113.788 549.318 113.788C547.082 113.788 545.281 111.983 545.281 109.752C545.281 107.521 547.087 105.715 549.318 105.715C550.828 105.715 552.14 106.548 552.839 107.767L556.696 105.626C555.254 103.054 552.476 101.293 549.318 101.293C544.645 101.293 540.855 105.084 540.855 109.756C540.855 114.429 544.645 118.219 549.318 118.219C552.499 118.219 555.254 116.481 556.696 113.887L552.839 111.736ZM514.8 94.2733H519.629V117.896H514.8V94.2733ZM558.592 94.2733V117.896H563.421V110.809L569.151 117.896H575.333L568.044 109.478L574.791 101.625H568.878L563.416 108.143V94.2733H558.592Z" fill="#B7BAC7"/>
<path d="M533.979 111.781C533.28 112.933 531.837 113.788 530.211 113.788C527.975 113.788 526.174 111.983 526.174 109.752C526.174 107.521 527.98 105.715 530.211 105.715C531.837 105.715 533.28 106.616 533.979 107.789V111.781ZM533.979 101.629V103.547C533.19 102.216 531.228 101.289 529.171 101.289C524.929 101.289 521.591 105.034 521.591 109.729C521.591 114.424 524.929 118.214 529.171 118.214C531.223 118.214 533.186 117.292 533.979 115.957V117.874H538.808V101.629H533.979Z" fill="#B7BAC7"/>
<path fill-rule="evenodd" clip-rule="evenodd" d="M469.314 111.759C469.314 113.408 467.983 114.738 466.335 114.738C464.686 114.738 463.355 113.403 463.355 111.759C463.355 110.115 464.686 108.78 466.335 108.78H469.314V111.759ZM470.801 111.759C470.801 110.11 472.132 108.78 473.78 108.78C475.429 108.78 476.76 110.11 476.76 111.759V119.205C476.76 120.853 475.429 122.184 473.78 122.184C472.132 122.184 470.801 120.853 470.801 119.205V111.759Z" fill="#B7BAC7"/>
<path fill-rule="evenodd" clip-rule="evenodd" d="M473.781 99.8017C472.132 99.8017 470.801 98.4712 470.801 96.8225C470.801 95.1739 472.132 93.8433 473.781 93.8433C475.429 93.8433 476.76 95.1739 476.76 96.8225V99.8017H473.781ZM473.781 101.312C475.429 101.312 476.76 102.642 476.76 104.291C476.76 105.939 475.429 107.27 473.781 107.27H466.312C464.664 107.27 463.333 105.935 463.333 104.291C463.333 102.647 464.664 101.312 466.312 101.312H473.781Z" fill="#B7BAC7"/>
<path fill-rule="evenodd" clip-rule="evenodd" d="M485.716 104.291C485.716 102.642 487.046 101.312 488.695 101.312C490.343 101.312 491.674 102.642 491.674 104.291C491.674 105.939 490.343 107.27 488.695 107.27H485.716V104.291ZM484.228 104.291C484.228 105.939 482.898 107.27 481.249 107.27C479.6 107.27 478.27 105.939 478.27 104.291V96.8226C478.27 95.1739 479.6 93.8434 481.249 93.8434C482.898 93.8434 484.228 95.1739 484.228 96.8226V104.291Z" fill="#B7BAC7"/>
<path fill-rule="evenodd" clip-rule="evenodd" d="M481.249 116.225C482.898 116.225 484.228 117.556 484.228 119.205C484.228 120.853 482.898 122.184 481.249 122.184C479.6 122.184 478.27 120.853 478.27 119.205V116.225H481.249ZM481.249 114.738C479.6 114.738 478.27 113.408 478.27 111.759C478.27 110.11 479.6 108.78 481.249 108.78H488.717C490.366 108.78 491.696 110.11 491.696 111.759C491.696 113.408 490.366 114.738 488.717 114.738H481.249Z" fill="#B7BAC7"/>
<path fill-rule="evenodd" clip-rule="evenodd" d="M686.816 96.243C688.356 96.6578 689.566 97.8681 689.975 99.4024C690.72 102.187 690.72 108 690.72 108C690.72 108 690.72 113.813 689.975 116.597C689.56 118.137 688.35 119.348 686.816 119.757C684.031 120.501 672.86 120.501 672.86 120.501C672.86 120.501 661.694 120.501 658.904 119.757C657.364 119.342 656.154 118.132 655.744 116.597C655 113.813 655 108 655 108C655 108 655 102.187 655.744 99.4024C656.159 97.8625 657.37 96.6521 658.904 96.243C661.694 95.4985 672.86 95.4985 672.86 95.4985C672.86 95.4985 684.031 95.4985 686.816 96.243ZM678.571 108L669.291 113.358V102.641L678.571 108Z" fill="#B7BAC7"/>
<path fill-rule="evenodd" clip-rule="evenodd" d="M706.847 118.245C706.142 117.768 705.636 117.029 705.341 116.023C705.045 115.017 704.892 113.682 704.892 112.011V109.738C704.892 108.051 705.062 106.698 705.403 105.675C705.744 104.653 706.278 103.908 707 103.442C707.722 102.976 708.671 102.738 709.847 102.738C711.006 102.738 711.932 102.976 712.631 103.454C713.33 103.931 713.841 104.675 714.165 105.687C714.489 106.698 714.648 108.051 714.648 109.733V112.006C714.648 113.676 714.489 115.017 714.177 116.029C713.864 117.04 713.353 117.785 712.643 118.251C711.938 118.716 710.978 118.955 709.767 118.955C708.528 118.961 707.551 118.722 706.847 118.245ZM710.807 115.79C711 115.279 711.103 114.443 711.103 113.29V108.409C711.103 107.283 711.006 106.465 710.807 105.943C710.614 105.425 710.267 105.164 709.773 105.164C709.296 105.164 708.96 105.425 708.761 105.943C708.568 106.46 708.466 107.283 708.466 108.409V113.29C708.466 114.449 708.557 115.284 708.744 115.79C708.932 116.302 709.273 116.557 709.767 116.557C710.267 116.557 710.608 116.302 710.807 115.79ZM761.096 112.051V112.841C761.096 113.847 761.125 114.597 761.187 115.102C761.244 115.603 761.369 115.972 761.557 116.199C761.744 116.426 762.034 116.546 762.426 116.546C762.954 116.546 763.318 116.341 763.511 115.932C763.705 115.523 763.812 114.841 763.829 113.886L766.869 114.063C766.887 114.199 766.892 114.386 766.892 114.625C766.892 116.074 766.494 117.154 765.705 117.87C764.915 118.586 763.795 118.944 762.346 118.944C760.608 118.944 759.392 118.398 758.693 117.307C757.994 116.216 757.647 114.534 757.647 112.25V109.517C757.647 107.164 758.011 105.454 758.732 104.369C759.454 103.289 760.693 102.749 762.449 102.749C763.659 102.749 764.585 102.971 765.233 103.414C765.881 103.857 766.335 104.544 766.603 105.482C766.864 106.42 767 107.715 767 109.363V112.045H761.096V112.051ZM761.545 105.459C761.369 105.681 761.25 106.045 761.187 106.545C761.125 107.045 761.096 107.812 761.096 108.829V109.954H763.676V108.829C763.676 107.823 763.642 107.062 763.574 106.545C763.506 106.028 763.381 105.658 763.204 105.448C763.028 105.238 762.75 105.13 762.375 105.13C762 105.124 761.721 105.238 761.545 105.459ZM698.266 111.756L694.254 97.2712H697.755L699.158 103.834C699.516 105.454 699.778 106.829 699.948 107.971H700.05C700.17 107.153 700.431 105.783 700.84 103.857L702.295 97.2654H705.795L701.738 111.756V118.705H698.266V111.756ZM726.03 103.045V118.699H723.274L722.967 116.784H722.893C722.143 118.233 721.018 118.955 719.524 118.955C718.484 118.955 717.717 118.614 717.223 117.932C716.728 117.25 716.484 116.188 716.484 114.739V103.045H720.007V114.54C720.007 115.239 720.081 115.739 720.234 116.034C720.388 116.33 720.643 116.483 721.001 116.483C721.308 116.483 721.604 116.392 721.882 116.205C722.16 116.017 722.371 115.779 722.507 115.489V103.044L726.03 103.045ZM744.112 103.045V118.699H741.356L741.049 116.784H740.975C740.225 118.233 739.1 118.955 737.605 118.955C736.565 118.955 735.798 118.614 735.304 117.932C734.81 117.25 734.565 116.188 734.565 114.739V103.045H738.088V114.54C738.088 115.239 738.162 115.739 738.316 116.034C738.469 116.33 738.725 116.483 739.083 116.483C739.39 116.483 739.685 116.392 739.963 116.205C740.242 116.017 740.452 115.779 740.589 115.489V103.044L744.112 103.045Z" fill="#B7BAC7"/>
<path fill-rule="evenodd" clip-rule="evenodd" d="M735.611 100.107H732.11V118.7H728.661V100.107H725.161V97.2715H735.605V100.107H735.611ZM755.777 105.551C755.561 104.562 755.22 103.846 754.743 103.403C754.266 102.959 753.612 102.738 752.777 102.738C752.129 102.738 751.527 102.92 750.964 103.289C750.402 103.653 749.97 104.136 749.663 104.732H749.635V96.4815H746.237V118.705H749.146L749.504 117.222H749.578C749.851 117.751 750.26 118.166 750.805 118.472C751.351 118.779 751.953 118.933 752.618 118.933C753.811 118.933 754.686 118.381 755.249 117.285C755.811 116.188 756.09 114.472 756.09 112.137V109.659C756.096 107.909 755.988 106.539 755.777 105.551V105.551ZM752.544 111.938C752.544 113.08 752.499 113.972 752.402 114.62C752.311 115.268 752.152 115.728 751.93 116.001C751.709 116.273 751.413 116.41 751.038 116.41C750.748 116.41 750.481 116.342 750.231 116.205C749.987 116.069 749.782 115.864 749.629 115.591V106.699C749.748 106.272 749.953 105.926 750.243 105.653C750.533 105.38 750.845 105.244 751.186 105.244C751.544 105.244 751.822 105.386 752.016 105.664C752.209 105.943 752.345 106.42 752.425 107.079C752.499 107.744 752.538 108.687 752.538 109.915V111.938H752.544Z" fill="#B7BAC7"/>
<path d="M871.81 106.417V116.845C871.81 117.014 871.743 117.176 871.623 117.296C871.504 117.416 871.342 117.483 871.173 117.483H867.882C867.713 117.483 867.551 117.415 867.432 117.296C867.312 117.176 867.245 117.014 867.245 116.845V99.8835C867.245 99.7144 867.312 99.5523 867.431 99.4328C867.551 99.3133 867.713 99.2461 867.882 99.2461H870.927C871.096 99.2461 871.258 99.3133 871.378 99.4328C871.497 99.5523 871.565 99.7144 871.565 99.8835V102.272C871.565 102.272 872.653 98.8648 875.884 98.8648C875.884 98.8648 879.08 98.4784 880.379 102.026C880.379 102.026 881.468 98.8648 884.769 98.8648C884.769 98.8648 889.678 98.5728 889.678 103.654L889.715 106.452V116.88C889.715 117.049 889.648 117.212 889.529 117.331C889.409 117.451 889.247 117.518 889.078 117.518H885.787C885.618 117.518 885.456 117.451 885.336 117.331C885.217 117.212 885.15 117.049 885.15 116.88L885.12 105.504C885.213 102.928 883.13 103.115 883.13 103.115C880.508 103.162 880.76 106.452 880.76 106.452V116.88C880.76 117.049 880.693 117.212 880.573 117.331C880.454 117.451 880.292 117.518 880.123 117.518H876.832C876.663 117.518 876.501 117.451 876.381 117.331C876.262 117.212 876.195 117.049 876.195 116.88V105.761C876.195 105.761 876.387 103.092 874.046 103.092C874.046 103.092 871.728 102.787 871.81 106.417ZM956.642 106.386V116.814C956.642 116.983 956.574 117.145 956.455 117.264C956.335 117.384 956.173 117.451 956.004 117.451L952.582 117.517C952.413 117.517 952.251 117.45 952.131 117.331C952.012 117.211 951.945 117.049 951.945 116.88V105.761C951.945 105.761 952.137 103.092 949.796 103.092C949.796 103.092 947.56 102.981 947.56 107.167V116.845C947.56 117.014 947.493 117.176 947.373 117.296C947.254 117.415 947.092 117.482 946.923 117.482H943.632C943.463 117.482 943.301 117.415 943.181 117.296C943.062 117.176 942.994 117.014 942.994 116.845V99.8835C942.994 99.7145 943.062 99.5524 943.181 99.4329C943.301 99.3134 943.463 99.2462 943.632 99.2461H946.677C946.846 99.2461 947.008 99.3133 947.127 99.4328C947.247 99.5523 947.314 99.7144 947.314 99.8835V102.272C947.314 102.272 948.403 98.8648 951.634 98.8648C951.634 98.8648 955.094 98.3395 956.26 101.96C956.26 101.96 956.642 102.707 956.642 106.386ZM932.88 98.7945C928.671 98.7945 925.259 102.342 925.259 108.314C925.259 113.572 927.893 117.834 932.88 117.834C937.585 117.834 940.5 113.572 940.5 108.314C940.5 102.448 937.088 98.7945 932.88 98.7945ZM935.536 108.525C935.536 110.773 935.255 111.967 935.255 111.967C934.855 114.344 933.131 114.347 932.876 114.335C932.602 114.346 930.862 114.321 930.503 111.967C930.503 111.967 930.222 110.773 930.222 108.525V108.15C930.222 105.902 930.503 104.708 930.503 104.708C930.862 102.354 932.602 102.329 932.876 102.34C933.131 102.328 934.855 102.331 935.255 104.708C935.255 104.708 935.536 105.902 935.536 108.15V108.525ZM923.349 102.249V99.8149C923.349 99.6459 923.282 99.4838 923.162 99.3643C923.043 99.2448 922.881 99.1776 922.712 99.1775H911.834C911.665 99.1775 911.503 99.2447 911.383 99.3642C911.264 99.4837 911.197 99.6459 911.197 99.8149V102.23C911.197 102.399 911.264 102.561 911.383 102.68C911.503 102.8 911.665 102.867 911.834 102.867H917.508L910.792 112.613C910.792 112.613 910.527 113.008 910.536 113.444V116.409C910.536 116.409 910.492 117.425 911.644 116.835C911.644 116.835 913.691 115.598 917.124 115.598C917.124 115.598 920.513 115.556 922.773 116.942C922.773 116.942 923.711 117.369 923.711 116.431V113.85C923.711 113.85 923.796 113.167 922.901 112.741C922.901 112.741 920.3 111.312 916.889 111.547L923.349 102.249ZM864.705 114.449L863.675 112.881C863.347 112.295 863.37 111.639 863.37 111.639V104.403C863.511 98.1504 856.581 98.6891 856.581 98.6891C850.42 98.6891 849.51 103.485 849.51 103.485C849.254 104.449 850 104.472 850 104.472L853.011 104.778C853.011 104.778 853.524 104.895 853.711 104.284C853.711 104.284 854.107 102.192 856.324 102.192C858.736 102.192 858.711 104.263 858.711 104.263V105.996C853.896 106.157 851.664 107.494 851.664 107.494C848.691 109.18 848.878 112.529 848.878 112.529C848.878 117.986 854.076 117.751 854.076 117.751C857.4 117.751 859.367 115.316 859.367 115.316C859.952 116.347 861.029 117.33 861.029 117.33C861.568 117.914 862.129 117.424 862.129 117.424L864.564 115.34C865.103 114.941 864.705 114.449 864.705 114.449ZM855.698 114.382C854.134 114.382 853.553 112.828 853.813 111.3C854.073 109.772 855.422 108.572 858.712 108.607V109.536C858.828 113.593 857 114.382 855.698 114.382ZM908.438 114.449L907.408 112.881C907.08 112.295 907.103 111.639 907.103 111.639V104.403C907.244 98.1504 900.314 98.6891 900.314 98.6891C894.153 98.6891 893.243 103.485 893.243 103.485C892.987 104.449 893.733 104.472 893.733 104.472L896.744 104.778C896.744 104.778 897.257 104.895 897.444 104.284C897.444 104.284 897.84 102.192 900.057 102.192C902.469 102.192 902.444 104.263 902.444 104.263V105.996C897.629 106.157 895.397 107.494 895.397 107.494C892.424 109.18 892.611 112.529 892.611 112.529C892.611 117.986 897.809 117.751 897.809 117.751C901.133 117.751 903.1 115.316 903.1 115.316C903.685 116.347 904.762 117.33 904.762 117.33C905.301 117.914 905.862 117.424 905.862 117.424L908.297 115.34C908.836 114.941 908.438 114.449 908.438 114.449ZM899.431 114.382C897.867 114.382 897.286 112.828 897.546 111.3C897.806 109.772 899.155 108.572 902.444 108.607V109.536C902.561 113.593 900.733 114.382 899.431 114.382Z" fill="#B7BAC7"/>
<path d="M916.724 128.146C916.724 128.146 916.449 128.625 916.787 128.732C916.787 128.732 917.169 128.881 917.645 128.439C917.645 128.439 921.12 125.402 921.204 119.874C921.204 119.874 921.23 119.184 920.953 118.995C920.953 118.995 919.864 118.032 915.949 118.325C915.949 118.325 912.537 118.555 910.674 120.209C910.674 120.209 910.507 120.356 910.507 120.544C910.507 120.544 910.467 120.951 911.491 120.775C911.491 120.775 914.903 120.293 916.933 120.544C916.933 120.544 917.98 120.67 918.273 121.026C918.273 121.026 918.755 121.424 918.503 122.743C918.503 122.743 917.812 126.094 916.724 128.146Z" fill="#B7BAC7"/>
<path d="M916.036 122.844C916.036 122.844 916.546 123.504 915.724 124.074C915.724 124.074 906.939 131.102 892.19 131.102C892.19 131.102 877.007 131.851 864.33 120.329C864.33 120.329 863.885 119.939 864.161 119.576C864.161 119.576 864.408 119.242 865.047 119.605C865.047 119.605 876.972 127.039 892.635 127.039C892.635 127.039 903.521 127.46 914.689 122.683C914.689 122.683 915.578 122.222 916.036 122.844Z" fill="#B7BAC7"/>
<path d="M1052.13 89.7248H1053.12C1056.58 89.8 1059.98 91.1906 1062.42 93.6523C1061.52 94.5731 1060.6 95.4564 1059.72 96.3772C1058.35 95.1369 1056.69 94.1785 1054.89 93.8402C1052.22 93.2765 1049.34 93.7839 1047.11 95.306C1044.67 96.9033 1043.01 99.6094 1042.65 102.503C1042.26 105.36 1043.07 108.366 1044.93 110.584C1046.71 112.745 1049.44 114.098 1052.26 114.192C1054.89 114.342 1057.63 113.534 1059.55 111.693C1061.05 110.396 1061.75 108.423 1061.97 106.506C1058.85 106.506 1055.73 106.525 1052.61 106.506V102.635H1065.75C1066.43 106.788 1065.45 111.467 1062.29 114.436C1060.19 116.541 1057.28 117.781 1054.31 118.026C1051.43 118.307 1048.46 117.762 1045.91 116.372C1042.84 114.737 1040.4 111.975 1039.2 108.723C1038.07 105.736 1038.05 102.353 1039.1 99.3463C1040.06 96.6027 1041.9 94.1785 1044.27 92.4872C1046.54 90.8147 1049.31 89.8939 1052.13 89.7248Z" fill="#B7BAC7"/>
<path d="M1127.48 90.7019H1131.5V117.537C1130.17 117.537 1128.82 117.556 1127.48 117.518C1127.5 108.592 1127.48 99.6469 1127.48 90.7019Z" fill="#B7BAC7"/>
<path d="M1074.7 100.004C1077.18 99.5342 1079.86 100.06 1081.91 101.545C1083.77 102.86 1085.07 104.928 1085.46 107.183C1085.97 109.795 1085.33 112.651 1083.64 114.718C1081.82 117.03 1078.83 118.27 1075.92 118.082C1073.25 117.932 1070.65 116.597 1069.08 114.417C1067.29 112.012 1066.86 108.705 1067.84 105.886C1068.81 102.86 1071.58 100.549 1074.7 100.004ZM1075.26 103.575C1074.24 103.838 1073.3 104.42 1072.63 105.247C1070.81 107.427 1070.92 110.979 1072.93 113.008C1074.07 114.173 1075.8 114.718 1077.4 114.399C1078.89 114.136 1080.18 113.14 1080.9 111.824C1082.14 109.588 1081.78 106.506 1079.88 104.758C1078.66 103.631 1076.87 103.161 1075.26 103.575Z" fill="#B7BAC7"/>
<path d="M1094.61 100.004C1097.45 99.4591 1100.55 100.248 1102.68 102.24C1106.13 105.341 1106.51 111.148 1103.56 114.718C1101.77 116.973 1098.88 118.213 1096.02 118.082C1093.3 118.007 1090.61 116.654 1089 114.417C1087.17 111.956 1086.78 108.573 1087.81 105.698C1088.85 102.766 1091.55 100.53 1094.61 100.004ZM1095.18 103.574C1094.16 103.838 1093.22 104.42 1092.55 105.228C1090.74 107.37 1090.82 110.866 1092.75 112.914C1093.9 114.136 1095.69 114.737 1097.34 114.399C1098.81 114.117 1100.12 113.14 1100.83 111.824C1102.06 109.569 1101.7 106.487 1099.78 104.74C1098.56 103.612 1096.78 103.161 1095.18 103.574Z" fill="#B7BAC7"/>
<path d="M1111.51 101.094C1113.67 99.7407 1116.54 99.3649 1118.88 100.53C1119.61 100.849 1120.21 101.394 1120.79 101.939C1120.81 101.432 1120.79 100.906 1120.81 100.38C1122.07 100.398 1123.33 100.38 1124.61 100.398V116.973C1124.59 119.472 1123.95 122.122 1122.14 123.945C1120.17 125.955 1117.15 126.576 1114.42 126.162C1111.51 125.73 1108.97 123.606 1107.84 120.919C1108.97 120.374 1110.16 119.942 1111.32 119.435C1111.98 120.976 1113.31 122.291 1114.99 122.592C1116.66 122.892 1118.59 122.479 1119.68 121.088C1120.85 119.66 1120.85 117.706 1120.79 115.958C1119.93 116.804 1118.93 117.555 1117.73 117.837C1115.12 118.57 1112.24 117.668 1110.23 115.902C1108.2 114.135 1107 111.411 1107.11 108.704C1107.17 105.641 1108.9 102.691 1111.51 101.094ZM1115.4 103.499C1114.25 103.687 1113.18 104.326 1112.45 105.209C1110.68 107.314 1110.68 110.678 1112.47 112.745C1113.48 113.966 1115.12 114.643 1116.7 114.474C1118.18 114.323 1119.55 113.384 1120.28 112.087C1121.52 109.888 1121.32 106.9 1119.65 104.984C1118.61 103.8 1116.96 103.217 1115.4 103.499Z" fill="#B7BAC7"/>
<path d="M1136.33 102.052C1138.59 99.9475 1142.06 99.2334 1144.96 100.342C1147.7 101.376 1149.45 103.988 1150.33 106.675C1146.26 108.366 1142.2 110.039 1138.12 111.73C1138.68 112.801 1139.55 113.778 1140.71 114.173C1142.35 114.756 1144.3 114.549 1145.67 113.459C1146.22 113.045 1146.65 112.501 1147.06 111.974C1148.1 112.67 1149.13 113.346 1150.16 114.041C1148.7 116.24 1146.24 117.781 1143.59 118.025C1140.66 118.382 1137.54 117.255 1135.64 114.962C1132.52 111.354 1132.82 105.303 1136.33 102.052ZM1138.34 105.529C1137.7 106.45 1137.44 107.577 1137.46 108.686C1140.19 107.558 1142.91 106.431 1145.64 105.284C1145.18 104.232 1144.09 103.593 1142.99 103.424C1141.2 103.105 1139.34 104.063 1138.34 105.529Z" fill="#B7BAC7"/>
<path d="M1359.8 106.69V104.425H1356.98V100.904L1356.89 100.933L1354.25 101.741L1354.2 101.757V104.425H1350.03V102.939C1350.03 102.247 1350.18 101.717 1350.49 101.364C1350.79 101.015 1351.22 100.838 1351.77 100.838C1352.17 100.838 1352.58 100.931 1353 101.116L1353.1 101.162V98.7764L1353.05 98.7585C1352.67 98.6197 1352.14 98.5498 1351.49 98.5498C1350.67 98.5498 1349.92 98.7284 1349.27 99.0822C1348.62 99.4366 1348.11 99.9424 1347.75 100.586C1347.4 101.228 1347.21 101.97 1347.21 102.791V104.425H1345.26V106.69H1347.21V116.233H1350.03V106.69H1354.2V112.755C1354.2 115.252 1355.37 116.518 1357.7 116.518C1358.08 116.518 1358.48 116.473 1358.89 116.385C1359.31 116.295 1359.59 116.206 1359.76 116.11L1359.8 116.088V113.802L1359.68 113.877C1359.53 113.979 1359.34 114.062 1359.12 114.124C1358.89 114.187 1358.71 114.218 1358.56 114.218C1358.02 114.218 1357.62 114.072 1357.37 113.782C1357.11 113.49 1356.98 112.98 1356.98 112.265V106.69H1359.8ZM1338.98 114.219C1337.96 114.219 1337.15 113.88 1336.58 113.214C1336.01 112.544 1335.72 111.589 1335.72 110.375C1335.72 109.123 1336.01 108.143 1336.58 107.461C1337.15 106.784 1337.95 106.44 1338.95 106.44C1339.93 106.44 1340.7 106.769 1341.26 107.417C1341.82 108.068 1342.1 109.04 1342.1 110.307C1342.1 111.589 1341.84 112.574 1341.31 113.233C1340.79 113.887 1340 114.219 1338.98 114.219ZM1339.1 104.141C1337.15 104.141 1335.61 104.711 1334.51 105.837C1333.4 106.962 1332.84 108.519 1332.84 110.466C1332.84 112.314 1333.39 113.801 1334.47 114.885C1335.54 115.969 1337.01 116.518 1338.82 116.518C1340.7 116.518 1342.22 115.939 1343.32 114.798C1344.42 113.659 1344.98 112.116 1344.98 110.215C1344.98 108.337 1344.46 106.839 1343.42 105.763C1342.39 104.687 1340.94 104.141 1339.1 104.141ZM1328.31 104.141C1326.99 104.141 1325.89 104.48 1325.05 105.148C1324.21 105.819 1323.79 106.701 1323.79 107.767C1323.79 108.321 1323.88 108.814 1324.06 109.232C1324.24 109.651 1324.52 110.019 1324.9 110.329C1325.27 110.636 1325.85 110.958 1326.61 111.285C1327.25 111.549 1327.73 111.772 1328.03 111.947C1328.33 112.12 1328.54 112.293 1328.66 112.461C1328.77 112.626 1328.83 112.852 1328.83 113.131C1328.83 113.924 1328.24 114.31 1327.01 114.31C1326.56 114.31 1326.04 114.215 1325.48 114.028C1324.91 113.845 1324.38 113.575 1323.9 113.23L1323.78 113.147V115.854L1323.83 115.874C1324.23 116.057 1324.73 116.212 1325.32 116.334C1325.91 116.456 1326.44 116.518 1326.91 116.518C1328.35 116.518 1329.5 116.178 1330.35 115.506C1331.2 114.829 1331.63 113.927 1331.63 112.824C1331.63 112.028 1331.4 111.345 1330.94 110.795C1330.49 110.249 1329.7 109.748 1328.6 109.305C1327.73 108.953 1327.16 108.662 1326.93 108.438C1326.71 108.221 1326.6 107.915 1326.6 107.528C1326.6 107.185 1326.74 106.91 1327.02 106.687C1327.31 106.463 1327.72 106.349 1328.22 106.349C1328.69 106.349 1329.17 106.423 1329.64 106.568C1330.12 106.713 1330.54 106.907 1330.89 107.145L1331 107.223V104.656L1330.96 104.637C1330.64 104.498 1330.21 104.38 1329.7 104.284C1329.18 104.189 1328.72 104.141 1328.31 104.141ZM1316.45 114.219C1315.43 114.219 1314.63 113.88 1314.06 113.214C1313.49 112.544 1313.2 111.589 1313.2 110.375C1313.2 109.123 1313.49 108.143 1314.06 107.461C1314.63 106.784 1315.43 106.44 1316.43 106.44C1317.41 106.44 1318.18 106.769 1318.74 107.417C1319.3 108.068 1319.58 109.04 1319.58 110.307C1319.58 111.589 1319.31 112.574 1318.79 113.233C1318.27 113.887 1317.48 114.219 1316.45 114.219ZM1316.58 104.141C1314.63 104.141 1313.09 104.711 1311.98 105.837C1310.88 106.962 1310.32 108.519 1310.32 110.466C1310.32 112.315 1310.87 113.801 1311.94 114.885C1313.02 115.969 1314.48 116.518 1316.3 116.518C1318.18 116.518 1319.7 115.939 1320.8 114.798C1321.9 113.659 1322.46 112.116 1322.46 110.215C1322.46 108.337 1321.94 106.839 1320.9 105.763C1319.87 104.687 1318.41 104.141 1316.58 104.141ZM1306.06 106.47V104.425H1303.28V116.233H1306.06V110.193C1306.06 109.166 1306.29 108.322 1306.75 107.685C1307.2 107.055 1307.81 106.736 1308.54 106.736C1308.79 106.736 1309.07 106.777 1309.38 106.859C1309.68 106.94 1309.9 107.028 1310.03 107.121L1310.14 107.205V104.405L1310.1 104.386C1309.84 104.276 1309.47 104.22 1309.01 104.22C1308.31 104.22 1307.69 104.445 1307.15 104.886C1306.68 105.274 1306.34 105.807 1306.08 106.47H1306.06ZM1298.3 104.141C1297.03 104.141 1295.89 104.414 1294.93 104.953C1293.96 105.493 1293.21 106.263 1292.7 107.243C1292.19 108.221 1291.93 109.363 1291.93 110.637C1291.93 111.752 1292.18 112.776 1292.68 113.678C1293.17 114.582 1293.87 115.289 1294.76 115.78C1295.64 116.27 1296.66 116.518 1297.79 116.518C1299.11 116.518 1300.24 116.254 1301.14 115.734L1301.18 115.713V113.168L1301.06 113.253C1300.65 113.551 1300.2 113.789 1299.7 113.961C1299.21 114.132 1298.76 114.219 1298.37 114.219C1297.28 114.219 1296.41 113.878 1295.77 113.205C1295.14 112.532 1294.81 111.587 1294.81 110.397C1294.81 109.2 1295.15 108.231 1295.81 107.515C1296.47 106.802 1297.35 106.44 1298.42 106.44C1299.33 106.44 1300.22 106.749 1301.06 107.36L1301.18 107.444V104.763L1301.14 104.742C1300.82 104.565 1300.39 104.418 1299.86 104.307C1299.32 104.197 1298.8 104.141 1298.3 104.141ZM1290.02 104.425H1287.24V116.233H1290.02V104.425ZM1288.66 99.3953C1288.2 99.3953 1287.8 99.5509 1287.48 99.8593C1287.15 100.169 1286.98 100.558 1286.98 101.017C1286.98 101.47 1287.15 101.852 1287.47 102.153C1287.8 102.453 1288.2 102.605 1288.66 102.605C1289.13 102.605 1289.53 102.453 1289.85 102.153C1290.18 101.852 1290.35 101.47 1290.35 101.017C1290.35 100.574 1290.19 100.189 1289.87 99.8718C1289.55 99.5555 1289.14 99.3953 1288.66 99.3953ZM1281.73 103.554V116.233H1284.56V99.7568H1280.64L1275.65 111.995L1270.82 99.7568H1266.73V116.233H1269.4V103.553H1269.49L1274.6 116.233H1276.61L1281.64 103.554H1281.73Z" fill="#B7BAC7"/>
<path d="M1244.07 107.317H1231V94.2512H1244.07V107.317Z" fill="#B7BAC7"/>
<path d="M1258.49 107.317H1245.42V94.2512H1258.49V107.317Z" fill="#B7BAC7"/>
<path d="M1244.07 121.749H1231V108.683H1244.07V121.749Z" fill="#B7BAC7"/>
<path d="M1258.49 121.749H1245.42V108.683H1258.49V121.749Z" fill="#B7BAC7"/>
</svg>
