<svg width="698" height="412" viewBox="0 0 698 412" fill="none" xmlns="http://www.w3.org/2000/svg">
<g filter="url(#filter0_d_2991_2073)">
<rect x="218" y="1" width="120" height="120" rx="60" fill="#F7F9FB" shape-rendering="crispEdges"/>
<rect x="218.5" y="1.5" width="119" height="119" rx="59.5" stroke="#F3F5F8" shape-rendering="crispEdges"/>
<path d="M295.911 44.3981C295.874 44.1254 295.635 43.9741 295.438 43.9576C295.241 43.9411 291.397 43.8827 291.397 43.8827C291.397 43.8827 288.182 40.7606 287.865 40.443C287.547 40.1254 286.927 40.2212 286.686 40.2932C286.686 40.2932 286.082 40.4804 285.071 40.7935C284.901 40.2452 284.653 39.571 284.297 38.8939C283.153 36.7096 281.477 35.5545 279.451 35.5515H279.444C279.303 35.5515 279.163 35.565 279.023 35.577C278.963 35.5051 278.903 35.4347 278.84 35.3658C277.957 34.4219 276.826 33.962 275.47 34.0025C272.855 34.0774 270.249 35.9665 268.137 39.3224C266.651 41.6834 265.52 44.6498 265.199 46.9464C262.195 47.8767 260.095 48.5269 260.049 48.5419C258.532 49.0183 258.485 49.0647 258.287 50.494C258.14 51.5741 254.173 82.2502 254.173 82.2502L287.418 88L301.827 84.4179C301.827 84.4179 295.949 44.6708 295.911 44.3981ZM283.406 41.3089C282.641 41.5456 281.77 41.8153 280.826 42.1074C280.807 40.783 280.65 38.9403 280.032 37.3478C282.017 37.7238 282.994 39.9696 283.406 41.3089ZM279.087 42.6467C277.345 43.186 275.443 43.7748 273.536 44.3651C274.073 42.3111 275.09 40.2662 276.339 38.9253C276.804 38.4265 277.454 37.8707 278.224 37.553C278.948 39.0632 279.105 41.201 279.087 42.6467ZM275.523 35.7433C276.137 35.7298 276.654 35.8646 277.096 36.1553C276.389 36.5223 275.706 37.0497 275.064 37.7373C273.403 39.5201 272.13 42.2872 271.622 44.9569C270.038 45.4467 268.489 45.9277 267.063 46.3682C267.963 42.1658 271.485 35.8601 275.523 35.7433Z" fill="#95BF47"/>
<path d="M295.438 43.9576C295.241 43.9411 291.397 43.8827 291.397 43.8827C291.397 43.8827 288.182 40.7606 287.865 40.443C287.746 40.3246 287.587 40.2647 287.42 40.2392L287.421 87.9986L301.827 84.4179C301.827 84.4179 295.949 44.6708 295.911 44.3981C295.874 44.1254 295.635 43.9741 295.438 43.9576Z" fill="#5E8E3E"/>
<path d="M279.433 51.3675L277.76 57.6282C277.76 57.6282 275.893 56.7787 273.68 56.918C270.435 57.1233 270.401 59.1698 270.434 59.6837C270.61 62.4836 277.977 63.0949 278.39 69.6538C278.715 74.8134 275.653 78.343 271.241 78.6216C265.945 78.9557 263.03 75.8321 263.03 75.8321L264.152 71.059C264.152 71.059 267.087 73.2733 269.436 73.125C270.97 73.0276 271.518 71.7797 271.463 70.8972C271.232 67.2447 265.234 67.4605 264.855 61.4589C264.535 56.4087 267.852 51.2911 275.171 50.8296C277.99 50.6484 279.433 51.3675 279.433 51.3675Z" fill="white"/>
</g>
<g filter="url(#filter1_d_2991_2073)">
<rect x="218" y="289" width="120" height="120" rx="60" fill="#F7F9FB" shape-rendering="crispEdges"/>
<rect x="218.5" y="289.5" width="119" height="119" rx="59.5" stroke="#F3F5F8" shape-rendering="crispEdges"/>
<path d="M286.164 343.64C289.365 346.852 291.984 352.111 290.486 355.235C286.478 363.591 256.575 378.246 254.036 375.709C251.497 373.174 266.186 343.314 274.559 339.311C277.689 337.815 282.957 340.429 286.176 343.625C286.176 343.625 286.171 343.633 286.164 343.64Z" fill="#FF8200"/>
<path d="M302.006 340.112C301.487 338.19 300.16 336.247 298.178 336.018C294.544 335.596 288.818 342.009 289.227 343.531C289.637 345.052 297.728 347.735 300.748 345.568C302.306 344.45 302.518 342.035 302.006 340.112ZM290.762 322.347C293.46 323.077 296.188 324.933 296.511 327.706C297.104 332.791 288.097 340.807 285.959 340.235C283.821 339.663 280.054 328.339 283.1 324.109C284.67 321.929 288.059 321.633 290.762 322.347Z" fill="#43B02A"/>
</g>
<g filter="url(#filter2_d_2991_2073)">
<rect x="146" y="145" width="120" height="120" rx="60" fill="#F7F9FB" shape-rendering="crispEdges"/>
<rect x="146.5" y="145.5" width="119" height="119" rx="59.5" stroke="#F3F5F8" shape-rendering="crispEdges"/>
<path fill-rule="evenodd" clip-rule="evenodd" d="M226.589 178.017H185.419C181.877 178.017 179.005 180.886 179 184.428V225.538C178.993 227.245 179.666 228.884 180.871 230.093C182.076 231.303 183.712 231.983 185.419 231.983H226.589C228.295 231.98 229.929 231.299 231.132 230.09C232.335 228.881 233.007 227.243 233 225.538V184.428C232.995 180.889 230.128 178.022 226.589 178.017ZM202.289 216.887C202.286 217.457 202.057 218.003 201.651 218.404C201.245 218.805 200.696 219.028 200.126 219.023H191.129C189.952 219.019 189.001 218.063 189.001 216.887V190.112C189.001 188.935 189.952 187.98 191.129 187.975H200.126C201.304 187.98 202.258 188.933 202.263 190.112L202.289 216.887ZM223.051 204.593C223.051 205.165 222.823 205.712 222.416 206.114C222.01 206.515 221.46 206.737 220.888 206.73H211.891C210.713 206.726 209.759 205.772 209.755 204.593V190.112C209.759 188.933 210.713 187.98 211.891 187.975H220.888C222.065 187.98 223.017 188.935 223.017 190.112L223.051 204.593Z" fill="url(#paint0_linear_2991_2073)"/>
</g>
<g filter="url(#filter3_d_2991_2073)">
<rect x="74" y="1" width="120" height="120" rx="60" fill="#F7F9FB" shape-rendering="crispEdges"/>
<rect x="74.5" y="1.5" width="119" height="119" rx="59.5" stroke="#F3F5F8" shape-rendering="crispEdges"/>
<path d="M160.604 55.2126C158.07 43.5624 144.108 36.7115 129.414 39.9066C114.72 43.1017 104.866 55.1397 107.396 66.7866C109.927 78.4334 123.892 85.291 138.583 82.0925C153.274 78.8941 163.135 66.8727 160.604 55.2126ZM134.002 71.7383C131.879 71.7383 129.804 71.1085 128.039 69.9285C126.274 68.7485 124.899 67.0714 124.086 65.1091C123.274 63.1469 123.062 60.9877 123.476 58.9046C123.89 56.8215 124.912 54.908 126.413 53.4062C127.914 51.9043 129.826 50.8816 131.908 50.4672C133.99 50.0529 136.148 50.2655 138.109 51.0783C140.07 51.8911 141.746 53.2675 142.925 55.0335C144.105 56.7995 144.734 58.8757 144.734 60.9996C144.734 62.4098 144.456 63.8062 143.917 65.1091C143.378 66.412 142.587 67.5958 141.591 68.593C140.594 69.5902 139.411 70.3812 138.109 70.9209C136.807 71.4605 135.411 71.7383 134.002 71.7383Z" fill="#008C99"/>
<path d="M136.38 45.9654C133.333 45.966 130.354 46.8709 127.82 48.5655C125.286 50.2601 123.312 52.6684 122.146 55.4859C120.98 58.3033 120.675 61.4034 121.27 64.3941C121.865 67.3848 123.333 70.1319 125.488 72.2879C127.644 74.4439 130.389 75.9121 133.378 76.5067C136.367 77.1014 139.466 76.7958 142.281 75.6287C145.097 74.4616 147.503 72.4854 149.196 69.9499C150.889 67.4144 151.793 64.4334 151.793 61.3841C151.793 59.359 151.394 57.3537 150.62 55.4828C149.845 53.6119 148.71 51.912 147.278 50.4802C145.847 49.0484 144.148 47.9128 142.278 47.1381C140.408 46.3634 138.404 45.9649 136.38 45.9654ZM134.005 70.3794C132.151 70.3794 130.339 69.8293 128.797 68.7986C127.255 67.7679 126.054 66.303 125.344 64.5891C124.635 62.8752 124.449 60.9892 124.811 59.1697C125.173 57.3502 126.066 55.6789 127.377 54.3671C128.688 53.0553 130.358 52.1619 132.176 51.8C133.995 51.4381 135.88 51.6238 137.592 52.3338C139.305 53.0437 140.769 54.2459 141.799 55.7884C142.829 57.3309 143.379 59.1444 143.379 60.9996C143.379 63.4867 142.392 65.872 140.635 67.6309C138.878 69.3899 136.491 70.3785 134.005 70.3794Z" fill="#70CCD3"/>
</g>
<g filter="url(#filter4_d_2991_2073)">
<rect x="74" y="289" width="120" height="120" rx="60" fill="#F7F9FB" shape-rendering="crispEdges"/>
<rect x="74.5" y="289.5" width="119" height="119" rx="59.5" stroke="#F3F5F8" shape-rendering="crispEdges"/>
<path d="M144.014 327.786L110.61 347.071V335.5L134 322L144.014 327.786Z" fill="#221F20"/>
<path d="M157.39 335.5V342.176L116.396 365.838L110.61 362.5V356.22L151.926 332.36L157.39 335.5Z" fill="#221F20"/>
<path d="M124.308 370.412L157.39 351.324V362.5L134 376L124.308 370.412Z" fill="#221F20"/>
</g>
<g filter="url(#filter5_d_2991_2073)">
<rect x="2" y="145" width="120" height="120" rx="60" fill="#F7F9FB" shape-rendering="crispEdges"/>
<rect x="2.5" y="145.5" width="119" height="119" rx="59.5" stroke="#F3F5F8" shape-rendering="crispEdges"/>
<path d="M88.9409 205C88.9409 219.912 76.8789 232 61.9998 232C47.1206 232 35.0586 219.912 35.0586 205C35.0586 190.088 47.1206 178 61.9998 178C76.8789 178 88.9409 190.088 88.9409 205Z" fill="white"/>
<path d="M61.9998 178C47.1206 178 35.0586 190.088 35.0586 205C35.0586 216.439 42.1567 226.214 52.1786 230.148C51.9431 228.011 51.7302 224.726 52.272 222.394C52.7616 220.287 55.4311 208.973 55.4311 208.973C55.4311 208.973 54.6253 207.356 54.6253 204.965C54.6253 201.21 56.7966 198.407 59.5002 198.407C61.7987 198.407 62.9089 200.137 62.9089 202.211C62.9089 204.527 61.4372 207.991 60.6777 211.2C60.043 213.888 62.0224 216.079 64.6673 216.079C69.4556 216.079 73.1364 211.019 73.1364 203.715C73.1364 197.251 68.5013 192.731 61.8829 192.731C54.2172 192.731 49.7177 198.493 49.7177 204.448C49.7177 206.769 50.6097 209.257 51.7227 210.61C51.9429 210.877 51.9752 211.111 51.9096 211.384C51.7051 212.237 51.2506 214.071 51.1614 214.446C51.0439 214.94 50.7709 215.045 50.2603 214.807C46.8955 213.237 44.7918 208.307 44.7918 204.347C44.7918 195.83 50.9666 188.008 62.5929 188.008C71.9388 188.008 79.2017 194.683 79.2017 203.602C79.2017 212.907 73.3473 220.396 65.2216 220.396C62.4915 220.396 59.9251 218.975 59.0466 217.296C59.0466 217.296 57.6957 222.451 57.3682 223.714C56.76 226.06 55.118 228.999 54.0197 230.793C56.5404 231.575 59.2224 232 61.9998 232C76.8789 232 88.9409 219.912 88.9409 205C88.9409 190.088 76.8789 178 61.9998 178Z" fill="#E60023"/>
</g>
<g filter="url(#filter6_d_2991_2073)">
<rect x="362" y="1" width="120" height="120" rx="60" fill="#F7F9FB" shape-rendering="crispEdges"/>
<rect x="362.5" y="1.5" width="119" height="119" rx="59.5" stroke="#F3F5F8" shape-rendering="crispEdges"/>
<path d="M448.983 59.8772C449.058 61.3534 448.883 62.8046 448.457 64.2308C448.055 65.632 447.429 66.9831 446.601 68.1841C445.774 69.4101 444.746 70.486 443.568 71.3617L443.543 71.3868L432.287 79.8187L426.721 84.0222L423.362 86.5743C423.161 86.7245 422.944 86.8329 422.71 86.8996C422.476 86.983 422.234 87.0247 421.983 87.0247C421.732 87.0247 421.49 86.983 421.256 86.8996C421.022 86.8329 420.813 86.7245 420.629 86.5743L417.245 84.0222L411.705 79.8187L400.524 71.4368L400.474 71.3868L400.423 71.3617C399.27 70.486 398.242 69.4101 397.415 68.1841C396.563 66.9831 395.936 65.632 395.535 64.2308C395.134 62.8046 394.958 61.3534 395.008 59.8772C395.084 58.401 395.384 56.9498 395.911 55.5737L395.986 55.3985L403.331 36.2076C403.365 36.1075 403.407 36.0158 403.457 35.9324C403.507 35.849 403.565 35.7656 403.632 35.6822C403.699 35.5988 403.766 35.5237 403.833 35.457C403.916 35.3903 404 35.3319 404.084 35.2818C404.334 35.1317 404.635 35.0316 404.936 34.9816C405.237 34.9566 405.538 35.0066 405.813 35.1067C406.114 35.2068 406.365 35.3819 406.565 35.6071C406.766 35.8323 406.916 36.1075 406.992 36.4078L411.955 51.5954H432.036L437 36.4078C437.1 36.1075 437.225 35.8323 437.451 35.6071C437.652 35.3819 437.902 35.2068 438.178 35.1067C438.479 35.0066 438.78 34.9566 439.081 34.9816C439.381 35.0316 439.657 35.1317 439.933 35.2818C440.016 35.3319 440.092 35.3903 440.159 35.457C440.242 35.5237 440.317 35.5988 440.384 35.6822L440.535 35.9324C440.585 36.0158 440.635 36.1075 440.685 36.2076L448.03 55.3735L448.106 55.5737C448.632 56.9498 448.933 58.401 448.983 59.8772Z" fill="#E24329"/>
<path d="M448.983 59.8772C449.058 61.3534 448.883 62.8048 448.482 64.231C448.055 65.6322 447.429 66.9831 446.601 68.1841C445.774 69.4101 444.746 70.486 443.568 71.3617L443.543 71.3868L432.287 79.8187L422.008 72.0375L438.153 59.8274C438.872 59.2769 439.624 58.7765 440.409 58.3261C441.195 57.8591 442.005 57.4421 442.841 57.0751C443.677 56.6915 444.529 56.3578 445.398 56.0743C446.25 55.7907 447.128 55.557 448.03 55.3735L448.106 55.5737C448.632 56.9498 448.933 58.401 448.983 59.8772Z" fill="#FC6D26"/>
<path d="M422.008 72.0375L432.287 79.8187L426.721 84.0222L423.362 86.5743C423.161 86.7245 422.944 86.8329 422.71 86.8996C422.476 86.983 422.234 87.0247 421.983 87.0247C421.732 87.0247 421.49 86.983 421.256 86.8996C421.022 86.8329 420.813 86.7245 420.629 86.5743L417.245 84.0222L411.705 79.8187L422.008 72.0375Z" fill="#FCA326"/>
<path d="M421.983 72.0379L411.705 79.8187L400.524 71.4368L400.474 71.3868L400.423 71.3617C399.27 70.486 398.242 69.4101 397.415 68.1841C396.563 66.9831 395.936 65.632 395.535 64.2308C395.134 62.8046 394.958 61.3534 395.008 59.8772C395.084 58.401 395.384 56.9498 395.911 55.5737L395.986 55.3985C396.872 55.582 397.749 55.8078 398.618 56.0747C399.487 56.3583 400.34 56.6919 401.175 57.0755C401.994 57.4425 402.797 57.8595 403.582 58.3266C404.368 58.7936 405.128 59.294 405.863 59.8278L421.983 72.0379Z" fill="#FC6D26"/>
</g>
<g filter="url(#filter7_d_2991_2073)">
<rect x="362" y="289" width="120" height="120" rx="60" fill="#F7F9FB" shape-rendering="crispEdges"/>
<rect x="362.5" y="289.5" width="119" height="119" rx="59.5" stroke="#F3F5F8" shape-rendering="crispEdges"/>
<path fill-rule="evenodd" clip-rule="evenodd" d="M399.449 363.486L407.774 357.124C412.195 362.883 416.889 365.537 422.12 365.537C427.323 365.537 431.888 362.913 436.111 357.2L444.55 363.41C438.462 371.648 430.888 376 422.12 376C413.382 376 405.738 371.678 399.449 363.486Z" fill="url(#paint1_linear_2991_2073)"/>
<path fill-rule="evenodd" clip-rule="evenodd" d="M422.094 335.837L407.277 348.577L400.432 340.65L422.123 322L443.646 340.665L436.767 348.562L422.094 335.837Z" fill="url(#paint2_linear_2991_2073)"/>
</g>
<g filter="url(#filter8_d_2991_2073)">
<rect x="290" y="145" width="120" height="120" rx="60" fill="#F7F9FB" shape-rendering="crispEdges"/>
<rect x="290.5" y="145.5" width="119" height="119" rx="59.5" stroke="#F3F5F8" shape-rendering="crispEdges"/>
<path fill-rule="evenodd" clip-rule="evenodd" d="M334.781 182.383L349.998 180.789L365.216 182.383L376.998 198.055L349.999 229.211L323 198.055L334.781 182.383Z" fill="#FDB300"/>
<path fill-rule="evenodd" clip-rule="evenodd" d="M333.936 198.244L349.999 229.211L323 198.244H333.936Z" fill="#EA6C00"/>
<path fill-rule="evenodd" clip-rule="evenodd" d="M366.065 198.244L349.999 229.211L377 198.244H366.065Z" fill="#EA6C00"/>
<path fill-rule="evenodd" clip-rule="evenodd" d="M333.691 198.244H365.753L349.722 229.21L333.691 198.244Z" fill="#FDAD00"/>
<path fill-rule="evenodd" clip-rule="evenodd" d="M349.441 180.789L334.52 182.4L333.691 198.244L349.441 180.789Z" fill="#FDD231"/>
<path fill-rule="evenodd" clip-rule="evenodd" d="M349.998 180.789L364.916 182.4L365.753 198.244L349.998 180.789Z" fill="#FDD231"/>
<path fill-rule="evenodd" clip-rule="evenodd" d="M377 198.244L365.187 182.476L366.035 198.241L377 198.244Z" fill="#FDAD00"/>
<path fill-rule="evenodd" clip-rule="evenodd" d="M323 198.244L334.812 182.476L333.964 198.241L323 198.244Z" fill="#FDAD00"/>
<path fill-rule="evenodd" clip-rule="evenodd" d="M349.722 180.789L333.691 198.244H365.753L349.722 180.789Z" fill="#FEEEB7"/>
</g>
<g filter="url(#filter9_d_2991_2073)">
<rect x="650" y="1" width="120" height="120" rx="60" fill="#F7F9FB" shape-rendering="crispEdges"/>
<rect x="650.5" y="1.5" width="119" height="119" rx="59.5" stroke="#F3F5F8" shape-rendering="crispEdges"/>
<path d="M720.822 34L718.326 57.7994L714.071 37.734L700.65 40.5653L704.865 60.6307L685.552 64.734L688.989 80.7371L722.991 88L730.765 70.5608L734.447 35.4362L720.822 34ZM710.061 68.5502C709.366 69.2067 708.466 69.1246 707.443 68.7964C706.461 68.4681 706.051 67.3191 706.379 65.8419C706.665 64.7751 707.934 64.6109 708.629 64.6109C708.875 64.6109 709.12 64.652 709.366 64.7751C709.816 64.9802 710.593 65.4316 710.757 66.0882C711.002 67.073 710.757 67.8936 710.061 68.5502ZM719.922 69.617C719.39 70.5198 718.081 70.6429 716.731 69.9863C715.83 69.535 715.83 68.4681 715.953 67.7705C715.994 67.4012 716.158 67.0319 716.403 66.7447C716.731 66.3344 717.263 65.8009 717.835 65.8009C718.858 65.7599 719.677 66.2112 720.168 67.0319C720.659 67.8526 720.413 68.7553 719.922 69.617Z" fill="#00CCBC"/>
</g>
<g filter="url(#filter10_d_2991_2073)">
<rect x="650" y="289" width="120" height="120" rx="60" fill="#F7F9FB" shape-rendering="crispEdges"/>
<rect x="650.5" y="289.5" width="119" height="119" rx="59.5" stroke="#F3F5F8" shape-rendering="crispEdges"/>
<path d="M707.113 326.777L686.98 335.185C685.861 335.653 685.872 337.259 686.999 337.709L707.216 345.802C708.992 346.513 710.97 346.513 712.746 345.802L732.963 337.709C734.09 337.259 734.102 335.653 732.982 335.186L712.849 326.776C711.013 326.009 708.95 326.01 707.113 326.777Z" fill="#FCB400"/>
<path d="M711.775 350.22V370.436C711.775 371.397 712.735 372.056 713.621 371.702L736.148 362.875C736.4 362.775 736.615 362.601 736.767 362.375C736.919 362.149 737 361.883 737 361.61V341.394C737 340.433 736.039 339.774 735.154 340.129L712.626 348.955C712.375 349.055 712.16 349.23 712.008 349.455C711.856 349.681 711.775 349.947 711.775 350.22Z" fill="#18BFFF"/>
<path d="M706.514 351.263L699.828 354.521L699.15 354.852L685.036 361.678C684.142 362.113 683 361.455 683 360.452V341.478C683 341.115 683.184 340.802 683.432 340.566C683.533 340.464 683.648 340.377 683.773 340.308C684.11 340.103 684.591 340.049 685 340.212L706.402 348.771C707.49 349.207 707.575 350.745 706.514 351.263Z" fill="#F82B60"/>
<path d="M706.514 351.263L699.828 354.521L683.432 340.566C683.533 340.464 683.648 340.377 683.773 340.308C684.11 340.103 684.591 340.049 685 340.212L706.402 348.771C707.49 349.207 707.575 350.745 706.514 351.263Z" fill="black" fill-opacity="0.25"/>
</g>
<g filter="url(#filter11_d_2991_2073)">
<rect x="578" y="145" width="120" height="120" rx="60" fill="#F7F9FB" shape-rendering="crispEdges"/>
<rect x="578.5" y="145.5" width="119" height="119" rx="59.5" stroke="#F3F5F8" shape-rendering="crispEdges"/>
<path d="M617.717 221.109C616.524 221.111 615.351 220.797 614.318 220.198C613.286 219.599 612.431 218.736 611.841 217.698C611.26 216.668 610.97 215.499 611.002 214.317C611.035 213.134 611.389 211.983 612.025 210.986L624.127 191.982C624.747 190.96 625.626 190.122 626.676 189.551C627.725 188.981 628.908 188.7 630.101 188.736C631.295 188.764 632.459 189.109 633.474 189.735C634.49 190.362 635.322 191.247 635.883 192.3C637.011 194.433 636.87 196.999 635.519 199.002L623.425 218.006C622.812 218.962 621.967 219.747 620.969 220.29C619.971 220.832 618.853 221.114 617.717 221.109Z" fill="#F62B54"/>
<path d="M638.475 221.109C636.035 221.109 633.789 219.804 632.609 217.706C632.029 216.679 631.74 215.513 631.773 214.333C631.805 213.154 632.158 212.006 632.794 211.012L644.873 192.051C645.483 191.015 646.359 190.162 647.411 189.579C648.462 188.996 649.65 188.705 650.852 188.736C653.313 188.789 655.544 190.166 656.672 192.32C657.793 194.474 657.629 197.056 656.236 199.053L644.16 218.014C643.548 218.965 642.707 219.748 641.714 220.289C640.72 220.83 639.607 221.112 638.475 221.109Z" fill="#FFCC00"/>
<path d="M658.769 221.268C662.211 221.268 665 218.537 665 215.168C665 211.799 662.211 209.068 658.769 209.068C655.328 209.068 652.539 211.799 652.539 215.168C652.539 218.537 655.328 221.268 658.769 221.268Z" fill="#00CA72"/>
</g>
<g filter="url(#filter12_d_2991_2073)">
<rect x="506" y="1" width="120" height="120" rx="60" fill="#F7F9FB" shape-rendering="crispEdges"/>
<rect x="506.5" y="1.5" width="119" height="119" rx="59.5" stroke="#F3F5F8" shape-rendering="crispEdges"/>
<path d="M554.844 39.8204H582.976V81.6946H554.844V39.8204Z" fill="white"/>
<path d="M561.796 34C549.186 34 539 44.1856 539 56.7964V88H570.204C582.814 88 593 77.8144 593 65.2036V34H561.796ZM580.228 43.5389C580.228 47.7425 576.832 50.976 572.79 50.976H564.707V57.4431H575.539V64.8802H564.868V80.4012H555.976V41.5988H564.707V48.5509C565.03 44.6707 568.263 41.5988 572.144 41.5988H580.228V43.5389Z" fill="#0075DD"/>
</g>
<g filter="url(#filter13_d_2991_2073)">
<rect x="506" y="289" width="120" height="120" rx="60" fill="#F7F9FB" shape-rendering="crispEdges"/>
<rect x="506.5" y="289.5" width="119" height="119" rx="59.5" stroke="#F3F5F8" shape-rendering="crispEdges"/>
<path d="M566 322C551.096 322 539 334.096 539 349C539 363.904 551.096 376 566 376C580.904 376 593 363.904 593 349C593 334.096 580.904 322 566 322ZM566 368.872C554.984 368.872 546.128 360.016 546.128 349C546.128 337.984 554.984 329.128 566 329.128C577.016 329.128 585.872 337.984 585.872 349C585.872 360.016 577.016 368.872 566 368.872Z" fill="#F12E45"/>
<path d="M572.696 347.92C575.798 347.92 578.312 345.406 578.312 342.304C578.312 339.202 575.798 336.688 572.696 336.688C569.594 336.688 567.08 339.202 567.08 342.304C567.08 345.406 569.594 347.92 572.696 347.92Z" fill="#F12E45"/>
<path d="M572.696 361.312C575.798 361.312 578.312 358.798 578.312 355.696C578.312 352.594 575.798 350.08 572.696 350.08C569.594 350.08 567.08 352.594 567.08 355.696C567.08 358.798 569.594 361.312 572.696 361.312Z" fill="#F12E45"/>
<path d="M559.304 361.312C562.406 361.312 564.92 358.798 564.92 355.696C564.92 352.594 562.406 350.08 559.304 350.08C556.202 350.08 553.688 352.594 553.688 355.696C553.688 358.798 556.202 361.312 559.304 361.312Z" fill="#F12E45"/>
<path d="M559.304 347.92C562.406 347.92 564.92 345.406 564.92 342.304C564.92 339.202 562.406 336.688 559.304 336.688C556.202 336.688 553.688 339.202 553.688 342.304C553.688 345.406 556.202 347.92 559.304 347.92Z" fill="#F12E45"/>
</g>
<g filter="url(#filter14_d_2991_2073)">
<rect x="434" y="145" width="120" height="120" rx="60" fill="#F7F9FB" shape-rendering="crispEdges"/>
<rect x="434.5" y="145.5" width="119" height="119" rx="59.5" stroke="#F3F5F8" shape-rendering="crispEdges"/>
<path fill-rule="evenodd" clip-rule="evenodd" d="M506.881 203.671H508.075C508.245 203.159 508.245 202.477 508.075 201.624C507.734 200.431 507.392 199.578 506.71 199.748C506.028 199.919 505.858 200.772 506.199 202.136C506.369 202.648 506.71 203.33 506.881 203.671Z" fill="#101828"/>
<path fill-rule="evenodd" clip-rule="evenodd" d="M500.571 204.694C501.082 204.865 501.423 205.035 501.594 204.865C501.594 204.865 501.594 204.694 501.594 204.353C501.253 203.841 500.741 203.5 500.23 203.159C499.036 202.648 497.672 202.818 496.648 203.671C496.307 204.012 495.966 204.353 495.966 204.524C495.966 204.524 495.966 204.694 496.137 204.694C496.478 204.694 497.501 204.183 498.695 204.183C499.377 204.183 500.059 204.353 500.571 204.694Z" fill="#101828"/>
<path fill-rule="evenodd" clip-rule="evenodd" d="M499.547 205.206C498.865 205.376 498.524 205.547 498.183 205.717C498.013 205.888 497.842 206.059 497.842 206.229V206.4H498.013C498.183 206.4 498.524 206.229 498.524 206.229C499.547 205.888 500.059 205.888 500.741 206.059H501.253V205.888C501.082 205.547 500.4 205.206 499.547 205.206Z" fill="#101828"/>
<path fill-rule="evenodd" clip-rule="evenodd" d="M504.834 207.593C505.346 207.764 505.858 207.764 506.028 207.423C506.199 207.082 506.028 206.57 505.516 206.4C505.005 206.229 504.493 206.229 504.323 206.57C504.152 206.741 504.323 207.252 504.834 207.593Z" fill="#101828"/>
<path fill-rule="evenodd" clip-rule="evenodd" d="M507.904 204.865C507.563 204.865 507.222 205.206 507.222 205.888C507.222 206.4 507.563 206.911 507.904 206.911C508.245 206.911 508.586 206.57 508.586 205.888C508.586 205.376 508.245 204.865 507.904 204.865Z" fill="#101828"/>
<path fill-rule="evenodd" clip-rule="evenodd" d="M481.982 214.415C481.811 214.245 481.811 214.415 481.641 214.415C481.47 214.415 481.47 214.415 481.299 214.415C480.958 214.415 480.788 214.245 480.617 214.074C480.447 213.733 480.447 213.392 480.617 212.88C480.617 212.88 480.617 212.71 480.788 212.71C481.129 212.028 481.641 210.834 480.958 209.81C480.447 208.958 479.765 208.446 478.912 208.276C478.059 208.105 477.206 208.446 476.695 209.128C475.842 209.981 475.672 211.345 475.842 211.857C475.842 212.028 476.013 212.028 476.013 212.028C476.183 212.028 476.354 211.857 476.524 211.516C476.524 211.516 476.524 211.516 476.524 211.345C476.524 211.175 476.695 210.834 476.865 210.493C477.036 210.152 477.377 209.981 477.889 209.81C478.23 209.64 478.741 209.81 479.082 209.981C479.594 210.322 479.935 211.175 479.594 211.857C479.423 212.198 479.253 212.88 479.253 213.392C479.423 214.586 480.106 214.927 480.617 215.097C481.299 215.097 481.641 214.756 481.811 214.586C482.152 214.415 482.152 214.415 481.982 214.415Z" fill="#101828"/>
<path d="M517.454 212.198C517.454 212.198 517.284 211.516 517.113 210.834C516.943 210.152 516.772 209.64 516.772 209.64C517.625 208.446 517.625 207.252 517.454 206.57C517.284 205.717 516.943 205.035 516.261 204.353C515.578 203.671 514.214 202.989 512.338 202.477C512.168 202.477 511.485 202.136 511.315 202.136C511.315 202.136 511.315 199.748 511.144 198.725C511.144 198.043 510.974 196.849 510.633 195.826C510.292 194.291 509.439 193.097 508.586 192.245C511.144 189.686 512.679 186.787 512.679 184.4C512.679 179.795 506.881 178.26 499.889 181.159L498.354 181.841L495.625 179.113C487.61 172.121 462.199 200.09 470.385 207.082L472.09 208.617C471.579 209.81 471.408 211.175 471.579 212.71C471.749 214.586 472.772 216.462 474.307 217.826C475.842 219.19 477.718 220.043 479.594 220.043C482.664 227.376 489.997 231.81 498.354 231.981C507.392 232.322 515.067 228.059 518.137 220.384C518.307 219.872 519.16 217.485 519.16 215.268C519.501 213.221 518.307 212.198 517.454 212.198ZM480.447 217.997C480.106 217.997 479.935 217.997 479.594 217.997C476.865 217.997 473.966 215.438 473.625 212.539C473.284 209.299 474.989 206.911 477.889 206.229C478.23 206.229 478.741 206.059 479.082 206.059C480.788 206.229 483.175 207.423 483.687 211.004C484.199 214.245 483.516 217.485 480.447 217.997ZM477.547 204.353C475.672 204.694 474.137 205.717 473.113 207.082C472.602 206.57 471.408 205.717 471.237 205.206C469.703 202.307 472.943 196.508 475.16 193.268C480.788 185.252 489.656 179.113 493.749 180.307C494.431 180.477 496.648 183.035 496.648 183.035C496.648 183.035 492.555 185.252 488.803 188.493C483.687 192.415 479.765 198.214 477.547 204.353ZM506.199 216.803C506.199 216.632 506.199 216.462 506.199 216.462C506.199 216.462 501.935 217.144 497.842 215.609C498.354 214.245 499.377 214.756 501.253 214.756C504.493 214.927 507.222 214.415 509.439 213.903C511.315 213.392 513.703 212.369 515.578 210.834C516.261 212.198 516.431 213.733 516.431 213.733C516.431 213.733 516.943 213.562 517.284 213.903C517.625 214.074 517.966 214.586 517.796 215.95C517.454 218.338 516.431 220.214 514.726 222.09C513.703 223.283 512.509 224.136 510.974 224.818C510.292 225.159 509.439 225.5 508.586 225.841C502.106 227.888 495.625 225.671 493.578 220.725C493.408 220.384 493.237 220.043 493.237 219.531C492.385 216.291 493.067 212.369 495.454 209.981C495.625 209.81 495.796 209.64 495.796 209.469C495.796 209.299 495.625 209.128 495.625 208.958C494.772 207.764 491.873 205.717 492.555 201.624C492.896 198.725 495.454 196.679 497.842 196.849H498.354C499.377 196.849 500.23 197.02 501.082 197.02C502.447 197.02 503.811 196.849 505.175 195.655C505.687 195.314 506.028 194.803 506.71 194.803H507.392C507.734 194.803 508.075 194.973 508.416 195.144C509.609 195.997 509.78 197.872 509.78 199.237C509.78 200.09 509.951 201.966 509.951 202.477C509.951 203.671 510.292 204.012 510.974 204.183C511.315 204.353 511.656 204.353 512.168 204.524C513.703 205.035 514.726 205.376 515.237 206.059C515.578 206.4 515.749 206.741 515.749 207.252C515.92 208.617 514.726 210.322 511.485 211.857C507.904 213.562 503.47 213.903 500.571 213.562C500.4 213.562 499.547 213.392 499.547 213.392C497.16 213.051 495.796 216.121 497.16 218.338C498.013 219.702 500.571 220.555 503.129 220.555C508.927 220.555 513.361 217.997 515.067 215.95C515.067 215.95 515.067 215.95 515.237 215.779C515.237 215.609 515.237 215.609 515.067 215.609C513.703 216.462 507.734 220.214 501.253 219.19C501.253 219.19 500.4 219.02 499.718 218.849C499.206 218.679 498.013 217.997 497.842 216.803C502.788 218.338 506.199 216.803 506.199 216.803ZM487.951 193.268C489.997 190.88 492.385 189.004 494.602 187.81C494.602 187.81 494.772 187.81 494.772 187.981C494.602 188.322 494.261 189.004 494.09 189.516C494.09 189.516 494.09 189.686 494.261 189.686C495.625 188.834 498.013 187.81 500.059 187.64C500.23 187.64 500.23 187.81 500.059 187.81C499.718 187.981 499.377 188.322 499.206 188.663V188.834C500.741 188.834 502.788 189.345 504.152 190.198C504.323 190.198 504.152 190.369 504.152 190.369C502.106 189.857 498.695 189.516 495.284 190.369C492.044 191.051 489.656 192.245 487.951 193.268C487.951 193.609 487.78 193.438 487.951 193.268Z" fill="#101828"/>
</g>
<rect x="2" y="1" width="696" height="408" fill="url(#paint3_linear_2991_2073)"/>
<rect x="2" y="1" width="696" height="408" fill="url(#paint4_linear_2991_2073)"/>
<defs>
<filter id="filter0_d_2991_2073" x="216" y="0" width="124" height="124" filterUnits="userSpaceOnUse" color-interpolation-filters="sRGB">
<feFlood flood-opacity="0" result="BackgroundImageFix"/>
<feColorMatrix in="SourceAlpha" type="matrix" values="0 0 0 0 0 0 0 0 0 0 0 0 0 0 0 0 0 0 127 0" result="hardAlpha"/>
<feOffset dy="1"/>
<feGaussianBlur stdDeviation="1"/>
<feComposite in2="hardAlpha" operator="out"/>
<feColorMatrix type="matrix" values="0 0 0 0 0.0627451 0 0 0 0 0.0941176 0 0 0 0 0.156863 0 0 0 0.04 0"/>
<feBlend mode="normal" in2="BackgroundImageFix" result="effect1_dropShadow_2991_2073"/>
<feBlend mode="normal" in="SourceGraphic" in2="effect1_dropShadow_2991_2073" result="shape"/>
</filter>
<filter id="filter1_d_2991_2073" x="216" y="288" width="124" height="124" filterUnits="userSpaceOnUse" color-interpolation-filters="sRGB">
<feFlood flood-opacity="0" result="BackgroundImageFix"/>
<feColorMatrix in="SourceAlpha" type="matrix" values="0 0 0 0 0 0 0 0 0 0 0 0 0 0 0 0 0 0 127 0" result="hardAlpha"/>
<feOffset dy="1"/>
<feGaussianBlur stdDeviation="1"/>
<feComposite in2="hardAlpha" operator="out"/>
<feColorMatrix type="matrix" values="0 0 0 0 0.0627451 0 0 0 0 0.0941176 0 0 0 0 0.156863 0 0 0 0.04 0"/>
<feBlend mode="normal" in2="BackgroundImageFix" result="effect1_dropShadow_2991_2073"/>
<feBlend mode="normal" in="SourceGraphic" in2="effect1_dropShadow_2991_2073" result="shape"/>
</filter>
<filter id="filter2_d_2991_2073" x="144" y="144" width="124" height="124" filterUnits="userSpaceOnUse" color-interpolation-filters="sRGB">
<feFlood flood-opacity="0" result="BackgroundImageFix"/>
<feColorMatrix in="SourceAlpha" type="matrix" values="0 0 0 0 0 0 0 0 0 0 0 0 0 0 0 0 0 0 127 0" result="hardAlpha"/>
<feOffset dy="1"/>
<feGaussianBlur stdDeviation="1"/>
<feComposite in2="hardAlpha" operator="out"/>
<feColorMatrix type="matrix" values="0 0 0 0 0.0627451 0 0 0 0 0.0941176 0 0 0 0 0.156863 0 0 0 0.04 0"/>
<feBlend mode="normal" in2="BackgroundImageFix" result="effect1_dropShadow_2991_2073"/>
<feBlend mode="normal" in="SourceGraphic" in2="effect1_dropShadow_2991_2073" result="shape"/>
</filter>
<filter id="filter3_d_2991_2073" x="72" y="0" width="124" height="124" filterUnits="userSpaceOnUse" color-interpolation-filters="sRGB">
<feFlood flood-opacity="0" result="BackgroundImageFix"/>
<feColorMatrix in="SourceAlpha" type="matrix" values="0 0 0 0 0 0 0 0 0 0 0 0 0 0 0 0 0 0 127 0" result="hardAlpha"/>
<feOffset dy="1"/>
<feGaussianBlur stdDeviation="1"/>
<feComposite in2="hardAlpha" operator="out"/>
<feColorMatrix type="matrix" values="0 0 0 0 0.0627451 0 0 0 0 0.0941176 0 0 0 0 0.156863 0 0 0 0.04 0"/>
<feBlend mode="normal" in2="BackgroundImageFix" result="effect1_dropShadow_2991_2073"/>
<feBlend mode="normal" in="SourceGraphic" in2="effect1_dropShadow_2991_2073" result="shape"/>
</filter>
<filter id="filter4_d_2991_2073" x="72" y="288" width="124" height="124" filterUnits="userSpaceOnUse" color-interpolation-filters="sRGB">
<feFlood flood-opacity="0" result="BackgroundImageFix"/>
<feColorMatrix in="SourceAlpha" type="matrix" values="0 0 0 0 0 0 0 0 0 0 0 0 0 0 0 0 0 0 127 0" result="hardAlpha"/>
<feOffset dy="1"/>
<feGaussianBlur stdDeviation="1"/>
<feComposite in2="hardAlpha" operator="out"/>
<feColorMatrix type="matrix" values="0 0 0 0 0.0627451 0 0 0 0 0.0941176 0 0 0 0 0.156863 0 0 0 0.04 0"/>
<feBlend mode="normal" in2="BackgroundImageFix" result="effect1_dropShadow_2991_2073"/>
<feBlend mode="normal" in="SourceGraphic" in2="effect1_dropShadow_2991_2073" result="shape"/>
</filter>
<filter id="filter5_d_2991_2073" x="0" y="144" width="124" height="124" filterUnits="userSpaceOnUse" color-interpolation-filters="sRGB">
<feFlood flood-opacity="0" result="BackgroundImageFix"/>
<feColorMatrix in="SourceAlpha" type="matrix" values="0 0 0 0 0 0 0 0 0 0 0 0 0 0 0 0 0 0 127 0" result="hardAlpha"/>
<feOffset dy="1"/>
<feGaussianBlur stdDeviation="1"/>
<feComposite in2="hardAlpha" operator="out"/>
<feColorMatrix type="matrix" values="0 0 0 0 0.0627451 0 0 0 0 0.0941176 0 0 0 0 0.156863 0 0 0 0.04 0"/>
<feBlend mode="normal" in2="BackgroundImageFix" result="effect1_dropShadow_2991_2073"/>
<feBlend mode="normal" in="SourceGraphic" in2="effect1_dropShadow_2991_2073" result="shape"/>
</filter>
<filter id="filter6_d_2991_2073" x="360" y="0" width="124" height="124" filterUnits="userSpaceOnUse" color-interpolation-filters="sRGB">
<feFlood flood-opacity="0" result="BackgroundImageFix"/>
<feColorMatrix in="SourceAlpha" type="matrix" values="0 0 0 0 0 0 0 0 0 0 0 0 0 0 0 0 0 0 127 0" result="hardAlpha"/>
<feOffset dy="1"/>
<feGaussianBlur stdDeviation="1"/>
<feComposite in2="hardAlpha" operator="out"/>
<feColorMatrix type="matrix" values="0 0 0 0 0.0627451 0 0 0 0 0.0941176 0 0 0 0 0.156863 0 0 0 0.04 0"/>
<feBlend mode="normal" in2="BackgroundImageFix" result="effect1_dropShadow_2991_2073"/>
<feBlend mode="normal" in="SourceGraphic" in2="effect1_dropShadow_2991_2073" result="shape"/>
</filter>
<filter id="filter7_d_2991_2073" x="360" y="288" width="124" height="124" filterUnits="userSpaceOnUse" color-interpolation-filters="sRGB">
<feFlood flood-opacity="0" result="BackgroundImageFix"/>
<feColorMatrix in="SourceAlpha" type="matrix" values="0 0 0 0 0 0 0 0 0 0 0 0 0 0 0 0 0 0 127 0" result="hardAlpha"/>
<feOffset dy="1"/>
<feGaussianBlur stdDeviation="1"/>
<feComposite in2="hardAlpha" operator="out"/>
<feColorMatrix type="matrix" values="0 0 0 0 0.0627451 0 0 0 0 0.0941176 0 0 0 0 0.156863 0 0 0 0.04 0"/>
<feBlend mode="normal" in2="BackgroundImageFix" result="effect1_dropShadow_2991_2073"/>
<feBlend mode="normal" in="SourceGraphic" in2="effect1_dropShadow_2991_2073" result="shape"/>
</filter>
<filter id="filter8_d_2991_2073" x="288" y="144" width="124" height="124" filterUnits="userSpaceOnUse" color-interpolation-filters="sRGB">
<feFlood flood-opacity="0" result="BackgroundImageFix"/>
<feColorMatrix in="SourceAlpha" type="matrix" values="0 0 0 0 0 0 0 0 0 0 0 0 0 0 0 0 0 0 127 0" result="hardAlpha"/>
<feOffset dy="1"/>
<feGaussianBlur stdDeviation="1"/>
<feComposite in2="hardAlpha" operator="out"/>
<feColorMatrix type="matrix" values="0 0 0 0 0.0627451 0 0 0 0 0.0941176 0 0 0 0 0.156863 0 0 0 0.04 0"/>
<feBlend mode="normal" in2="BackgroundImageFix" result="effect1_dropShadow_2991_2073"/>
<feBlend mode="normal" in="SourceGraphic" in2="effect1_dropShadow_2991_2073" result="shape"/>
</filter>
<filter id="filter9_d_2991_2073" x="648" y="0" width="124" height="124" filterUnits="userSpaceOnUse" color-interpolation-filters="sRGB">
<feFlood flood-opacity="0" result="BackgroundImageFix"/>
<feColorMatrix in="SourceAlpha" type="matrix" values="0 0 0 0 0 0 0 0 0 0 0 0 0 0 0 0 0 0 127 0" result="hardAlpha"/>
<feOffset dy="1"/>
<feGaussianBlur stdDeviation="1"/>
<feComposite in2="hardAlpha" operator="out"/>
<feColorMatrix type="matrix" values="0 0 0 0 0.0627451 0 0 0 0 0.0941176 0 0 0 0 0.156863 0 0 0 0.04 0"/>
<feBlend mode="normal" in2="BackgroundImageFix" result="effect1_dropShadow_2991_2073"/>
<feBlend mode="normal" in="SourceGraphic" in2="effect1_dropShadow_2991_2073" result="shape"/>
</filter>
<filter id="filter10_d_2991_2073" x="648" y="288" width="124" height="124" filterUnits="userSpaceOnUse" color-interpolation-filters="sRGB">
<feFlood flood-opacity="0" result="BackgroundImageFix"/>
<feColorMatrix in="SourceAlpha" type="matrix" values="0 0 0 0 0 0 0 0 0 0 0 0 0 0 0 0 0 0 127 0" result="hardAlpha"/>
<feOffset dy="1"/>
<feGaussianBlur stdDeviation="1"/>
<feComposite in2="hardAlpha" operator="out"/>
<feColorMatrix type="matrix" values="0 0 0 0 0.0627451 0 0 0 0 0.0941176 0 0 0 0 0.156863 0 0 0 0.04 0"/>
<feBlend mode="normal" in2="BackgroundImageFix" result="effect1_dropShadow_2991_2073"/>
<feBlend mode="normal" in="SourceGraphic" in2="effect1_dropShadow_2991_2073" result="shape"/>
</filter>
<filter id="filter11_d_2991_2073" x="576" y="144" width="124" height="124" filterUnits="userSpaceOnUse" color-interpolation-filters="sRGB">
<feFlood flood-opacity="0" result="BackgroundImageFix"/>
<feColorMatrix in="SourceAlpha" type="matrix" values="0 0 0 0 0 0 0 0 0 0 0 0 0 0 0 0 0 0 127 0" result="hardAlpha"/>
<feOffset dy="1"/>
<feGaussianBlur stdDeviation="1"/>
<feComposite in2="hardAlpha" operator="out"/>
<feColorMatrix type="matrix" values="0 0 0 0 0.0627451 0 0 0 0 0.0941176 0 0 0 0 0.156863 0 0 0 0.04 0"/>
<feBlend mode="normal" in2="BackgroundImageFix" result="effect1_dropShadow_2991_2073"/>
<feBlend mode="normal" in="SourceGraphic" in2="effect1_dropShadow_2991_2073" result="shape"/>
</filter>
<filter id="filter12_d_2991_2073" x="504" y="0" width="124" height="124" filterUnits="userSpaceOnUse" color-interpolation-filters="sRGB">
<feFlood flood-opacity="0" result="BackgroundImageFix"/>
<feColorMatrix in="SourceAlpha" type="matrix" values="0 0 0 0 0 0 0 0 0 0 0 0 0 0 0 0 0 0 127 0" result="hardAlpha"/>
<feOffset dy="1"/>
<feGaussianBlur stdDeviation="1"/>
<feComposite in2="hardAlpha" operator="out"/>
<feColorMatrix type="matrix" values="0 0 0 0 0.0627451 0 0 0 0 0.0941176 0 0 0 0 0.156863 0 0 0 0.04 0"/>
<feBlend mode="normal" in2="BackgroundImageFix" result="effect1_dropShadow_2991_2073"/>
<feBlend mode="normal" in="SourceGraphic" in2="effect1_dropShadow_2991_2073" result="shape"/>
</filter>
<filter id="filter13_d_2991_2073" x="504" y="288" width="124" height="124" filterUnits="userSpaceOnUse" color-interpolation-filters="sRGB">
<feFlood flood-opacity="0" result="BackgroundImageFix"/>
<feColorMatrix in="SourceAlpha" type="matrix" values="0 0 0 0 0 0 0 0 0 0 0 0 0 0 0 0 0 0 127 0" result="hardAlpha"/>
<feOffset dy="1"/>
<feGaussianBlur stdDeviation="1"/>
<feComposite in2="hardAlpha" operator="out"/>
<feColorMatrix type="matrix" values="0 0 0 0 0.0627451 0 0 0 0 0.0941176 0 0 0 0 0.156863 0 0 0 0.04 0"/>
<feBlend mode="normal" in2="BackgroundImageFix" result="effect1_dropShadow_2991_2073"/>
<feBlend mode="normal" in="SourceGraphic" in2="effect1_dropShadow_2991_2073" result="shape"/>
</filter>
<filter id="filter14_d_2991_2073" x="432" y="144" width="124" height="124" filterUnits="userSpaceOnUse" color-interpolation-filters="sRGB">
<feFlood flood-opacity="0" result="BackgroundImageFix"/>
<feColorMatrix in="SourceAlpha" type="matrix" values="0 0 0 0 0 0 0 0 0 0 0 0 0 0 0 0 0 0 127 0" result="hardAlpha"/>
<feOffset dy="1"/>
<feGaussianBlur stdDeviation="1"/>
<feComposite in2="hardAlpha" operator="out"/>
<feColorMatrix type="matrix" values="0 0 0 0 0.0627451 0 0 0 0 0.0941176 0 0 0 0 0.156863 0 0 0 0.04 0"/>
<feBlend mode="normal" in2="BackgroundImageFix" result="effect1_dropShadow_2991_2073"/>
<feBlend mode="normal" in="SourceGraphic" in2="effect1_dropShadow_2991_2073" result="shape"/>
</filter>
<linearGradient id="paint0_linear_2991_2073" x1="206.026" y1="231.983" x2="206.026" y2="178.017" gradientUnits="userSpaceOnUse">
<stop stop-color="#0052CC"/>
<stop offset="1" stop-color="#2684FF"/>
</linearGradient>
<linearGradient id="paint1_linear_2991_2073" x1="399.449" y1="385.723" x2="444.55" y2="385.723" gradientUnits="userSpaceOnUse">
<stop stop-color="#8930FD"/>
<stop offset="1" stop-color="#49CCF9"/>
</linearGradient>
<linearGradient id="paint2_linear_2991_2073" x1="399.449" y1="385.723" x2="444.55" y2="385.723" gradientUnits="userSpaceOnUse">
<stop stop-color="#FF02F0"/>
<stop offset="1" stop-color="#FFC800"/>
</linearGradient>
<linearGradient id="paint3_linear_2991_2073" x1="-434.5" y1="205" x2="698" y2="205" gradientUnits="userSpaceOnUse">
<stop stop-color="white"/>
<stop offset="0.502772" stop-color="white" stop-opacity="0"/>
<stop offset="1" stop-color="white"/>
</linearGradient>
<linearGradient id="paint4_linear_2991_2073" x1="350" y1="-42.5" x2="350" y2="493" gradientUnits="userSpaceOnUse">
<stop stop-color="white"/>
<stop offset="0.499237" stop-color="white" stop-opacity="0"/>
<stop offset="1" stop-color="white"/>
</linearGradient>
</defs>
</svg>
